<?xml version="1.0" standalone="no"?>
<!DOCTYPE svg PUBLIC "-//W3C//DTD SVG 20010904//EN"
 "http://www.w3.org/TR/2001/REC-SVG-20010904/DTD/svg10.dtd">
<svg version="1.0" xmlns="http://www.w3.org/2000/svg"
 width="300.000000pt" height="300.000000pt" viewBox="0 0 300.000000 300.000000"
 preserveAspectRatio="xMidYMid meet">
<metadata>
Created by potrace 1.11, written by Peter Selinger 2001-2013
</metadata>
<g transform="translate(0.000000,300.000000) scale(0.100000,-0.100000)"
fill="#000000" stroke="none">
<path d="M2180 2869 c-135 -22 -277 -129 -374 -279 -27 -41 -73 -107 -101
-145 -29 -39 -94 -133 -145 -209 l-93 -139 -24 94 c-77 300 -279 527 -538 605
-195 58 -447 27 -670 -84 -69 -34 -235 -149 -235 -163 0 -4 26 -1 58 7 31 8
107 17 168 21 129 7 222 -9 323 -58 85 -39 207 -161 245 -243 65 -139 115
-421 135 -776 12 -187 31 -663 31 -755 0 -36 3 -46 10 -35 9 13 10 13 10 0 0
-13 1 -13 10 0 9 13 10 13 10 0 0 -13 1 -13 10 0 9 13 10 13 10 0 0 -13 1 -13
10 0 9 13 10 13 10 0 0 -13 2 -13 9 -1 7 11 10 9 14 -10 l4 -24 2 24 1 24 20
-23 20 -23 0 23 0 23 20 -23 20 -23 0 23 0 23 20 -23 20 -23 1 24 1 24 8 -25
c4 -14 9 -18 9 -10 1 13 2 13 11 0 9 -13 10 -13 10 0 0 13 1 13 10 0 9 -13 10
-13 10 0 0 13 1 13 10 0 9 -13 10 -13 10 0 0 13 1 13 10 0 9 -13 10 -13 10 0
0 13 1 13 10 0 9 -13 10 -13 10 0 0 13 1 13 10 0 9 -13 10 -13 10 0 0 13 1 13
10 0 9 -13 10 -13 10 0 0 13 1 13 10 0 9 -13 10 -13 10 0 0 13 1 13 10 0 9
-13 10 -13 10 0 0 13 1 13 10 0 9 -13 10 -13 10 0 0 13 1 13 10 0 9 -13 10
-13 10 0 0 13 1 13 10 0 9 -13 10 -13 10 0 0 13 1 13 10 0 9 -13 10 -13 10 0
0 13 1 13 10 0 5 -8 10 -76 10 -150 1 -196 27 -299 79 -313 37 -9 45 48 32
216 -15 193 -14 294 4 402 31 192 85 328 211 536 86 142 214 370 280 499 l59
115 7 -60 c13 -124 30 -685 23 -810 -7 -152 10 -399 30 -428 13 -18 13 -18 18
4 4 24 4 24 6 -1 1 -20 3 -22 11 -10 9 13 10 13 11 0 0 -10 3 -8 9 5 l9 20 0
-20 c1 -17 3 -17 11 -5 9 13 10 13 10 0 0 -13 1 -13 10 0 9 13 10 13 10 0 0
-13 1 -13 10 0 9 13 10 13 10 0 0 -13 1 -13 10 0 9 13 10 13 10 0 0 -13 1 -13
10 0 9 13 10 13 10 0 0 -13 1 -13 10 0 9 13 10 13 10 0 0 -13 1 -13 10 0 9 13
10 13 10 0 0 -13 1 -13 10 0 9 13 10 13 10 0 0 -13 1 -13 10 0 9 13 10 13 10
0 0 -13 1 -13 10 0 9 13 10 13 10 0 0 -13 1 -13 10 0 9 13 10 13 10 0 0 -13 1
-13 10 0 9 13 10 13 10 0 0 -13 1 -13 10 0 9 13 10 13 10 0 0 -13 1 -13 10 0
9 13 10 13 10 0 0 -13 1 -13 10 0 9 13 10 13 10 0 0 -13 1 -13 10 0 9 13 10
13 10 0 0 -13 1 -13 10 0 9 13 10 13 10 0 0 -13 1 -13 10 0 9 13 10 13 10 0 0
-13 1 -13 10 0 9 13 10 13 10 0 0 -13 1 -13 10 0 6 10 10 11 10 3 0 -7 6 -13
14 -13 8 0 17 6 19 13 4 10 6 10 6 0 1 -16 31 -17 31 -1 0 6 9 1 20 -12 l20
-23 0 23 0 23 19 -22 c17 -20 20 -20 23 -5 3 17 4 17 21 0 9 -10 17 -13 17 -7
0 6 7 11 15 11 8 0 15 -6 15 -12 0 -10 2 -10 9 0 11 17 21 17 32 0 7 -10 9
-10 9 2 0 13 1 13 10 0 7 -10 8 -1 5 30 -13 111 -89 1158 -100 1370 -16 324
-70 494 -195 621 -132 134 -328 205 -490 178z"/>
</g>
</svg>
